<?xml version="1.0" encoding="utf-8"?>
<!-- Generator: Adobe Illustrator 16.0.0, SVG Export Plug-In . SVG Version: 6.00 Build 0)  -->
<!DOCTYPE svg PUBLIC "-//W3C//DTD SVG 1.1//EN" "http://www.w3.org/Graphics/SVG/1.1/DTD/svg11.dtd">
<svg version="1.1" id="Layer_1" xmlns="http://www.w3.org/2000/svg" xmlns:xlink="http://www.w3.org/1999/xlink" x="0px" y="0px"
	 width="128px" height="128px" viewBox="0 0 128 128" enable-background="new 0 0 128 128" xml:space="preserve">
<g>
	<g>
		<path fill-rule="evenodd" clip-rule="evenodd" fill="#21BBEE" d="M67.241,55.499c0.338,1.03-0.464,1.995-1.195,2.299
			c-1.185,0.495-2.358,0.241-3.244-0.805c-1.987-2.346-2.493-6.126-0.189-8.909c1.848-2.234,4.197-3.564,6.956-4.211
			c3.03-0.709,5.968-0.424,8.796,0.968c2.305,1.134,4.451,2.487,6.311,4.259c2.783,2.651,4.763,5.803,5.859,9.509
			c0.779,2.639,1.152,5.323,1.094,8.069c-0.054,2.469-0.434,4.896-1.129,7.259c-1.053,3.57-2.584,6.922-4.811,9.931
			c-2.717,3.676-6.105,6.505-10.384,8.192c-1.278,0.504-2.585,0.947-4.05,1.121c0.271-0.449,0.663-0.637,0.99-0.88
			c2.743-2.05,5.019-4.556,7.098-7.249c2.336-3.028,4.033-6.399,5.232-10.022c0.771-2.322,1.217-4.71,1.442-7.148
			c0.328-3.525,0.061-6.989-1.009-10.367c-1.057-3.341-2.693-6.346-5.455-8.608c-2.475-2.027-5.34-2.992-8.531-2.853
			c-2.263,0.099-4.449,0.512-6.287,2.015c-2.02,1.653-3.128,4.53-2.052,6.915c0.112,0.123,0.114,0.306,0.231,0.425v0.002
			c0.182,0.121,0.245,0.335,0.385,0.487c0.148,0.125,0.214,0.311,0.344,0.449c0.166,0.16,0.314,0.339,0.568,0.475
			c-0.252-0.154-0.42-0.327-0.582-0.506c-0.116-0.159-0.216-0.329-0.35-0.473c-0.188-0.22-0.162-0.509-0.251-0.762v0
			c-0.235-0.755-0.244-1.51,0.003-2.264c0.988-2.973,4.072-4.479,6.725-4.447c3.98,0.048,6.877,1.934,8.813,5.298
			c1.573,2.732,2.394,5.717,2.374,8.892c-0.023,3.55-1.021,6.818-2.912,9.825c-2.182,3.469-5.096,6.179-8.504,8.409
			c-4.468,2.922-9.364,4.82-14.501,6.146c-1.525,0.394-3.08,0.672-4.62,1.009c-0.257,0.057-0.439-0.031-0.629-0.199
			c-1.566-1.391-2.899-2.979-4.096-4.693c-0.763-1.091-1.359-2.283-2.096-3.385c-0.647-0.967-1.069-2.018-1.55-3.112
			c0.684,0.021,1.262,0.276,1.843,0.466c2.398,0.781,4.868,1.234,7.359,1.526c2.318,0.272,4.65,0.269,6.984,0.073
			c2.918-0.246,5.742-0.872,8.453-1.966c4.057-1.637,7.422-4.139,9.601-8.017c1.063-1.895,1.655-3.953,1.858-6.131
			c0.151-1.609,0.098-3.222-0.279-4.759c-0.662-2.715-1.961-5.097-4.475-6.587c-2.151-1.276-5.129-1.296-7.021,0.148
			c-1.138,0.868-1.666,2.045-1.573,3.474c0.062,0.936,1.083,1.709,1.936,1.506c0.318-0.075,0.325-0.089,0.187-0.344
			C66.865,55.684,67.034,55.578,67.241,55.499z"/>
		<path fill-rule="evenodd" clip-rule="evenodd" fill="#1599D6" d="M67.241,55.499c-0.111,0.15-0.222,0.3-0.332,0.45
			c-0.442,0.069-0.72-0.165-0.893-0.528c-0.256-0.534-0.198-1.064,0.188-1.505c0.795-0.904,1.805-1.059,2.938-0.812
			c2.129,0.463,3.289,2.668,3.279,4.287c-0.015,2.163-0.523,4.133-2.023,5.745c-0.969,1.041-2.18,1.737-3.519,2.218
			c-0.761,0.273-1.539,0.48-2.335,0.621c-2.054,0.256-4.105,0.23-6.158-0.004c-3.897-0.631-7.574-1.94-11.072-3.73
			c-1.899-0.972-3.734-2.073-5.469-3.328c-0.246-0.178-0.306-0.311-0.204-0.61c0.855-2.508,2.007-4.875,3.367-7.144
			c2.323-3.874,5.116-7.405,7.97-10.891c2.979-3.64,5.878-7.342,8.135-11.491c1.977-3.633,3.387-7.479,4.185-11.542
			C65.378,16.911,65.68,14,65.941,14c0.012,0.028,0.762,4.234,0.976,5.166c0.097,0.284,0.129,0.583,0.21,0.872
			c0.786,2.883,1.869,5.649,3.245,8.302c0.77,1.483,1.661,2.893,2.571,4.292c0.337,0.517,0.329,0.515-0.278,0.56
			c-5.013,0.366-9.43,2.155-13.011,5.716c-3.048,3.031-4.657,6.722-4.499,11.084c0.104,2.86,0.994,5.443,3.006,7.523
			c2.063,2.133,4.565,3.191,7.582,2.641c1.885-0.344,3.154-2.478,2.585-4.275c-0.232-0.739-0.721-1.101-1.456-1.068
			C66.96,55.063,67.292,55.181,67.241,55.499z"/>
		<path fill-rule="evenodd" clip-rule="evenodd" fill="#98D3EE" d="M58.388,65.971c1.304,0.035,2.605,0.144,3.912,0.137
			c0.754-0.006,1.492-0.193,2.245-0.133c-0.19,0.178-0.452,0.144-0.665,0.15C62.048,66.189,60.208,66.373,58.388,65.971z"/>
		<path fill-rule="evenodd" clip-rule="evenodd" fill="#C7EAF7" d="M63.032,52.817c-0.172,0.754-0.158,1.509-0.003,2.264
			C62.688,54.326,62.681,53.571,63.032,52.817z"/>
		<path fill-rule="evenodd" clip-rule="evenodd" fill="#C7EAF7" d="M63.243,55.949c-0.202-0.124-0.281-0.321-0.328-0.538
			c0.133-0.078,0.1-0.211,0.114-0.33c0.113,0.25,0.226,0.5,0.34,0.75C63.352,55.897,63.31,55.936,63.243,55.949z"/>
		<path fill-rule="evenodd" clip-rule="evenodd" fill="#C7EAF7" d="M62.915,55.409c-0.176-0.087-0.212-0.251-0.231-0.425
			C62.858,55.073,62.907,55.23,62.915,55.409z"/>
		<path fill-rule="evenodd" clip-rule="evenodd" fill="#79D1F0" d="M63.693,56.256c0.282,0.205,0.458,0.523,0.778,0.691
			c-0.396-0.053-0.696-0.241-0.911-0.563C63.575,56.311,63.618,56.267,63.693,56.256z"/>
		<path fill-rule="evenodd" clip-rule="evenodd" fill="#ADE0F3" d="M63.693,56.256c-0.044,0.042-0.089,0.085-0.132,0.128
			c-0.105-0.145-0.212-0.29-0.318-0.435c0.041-0.039,0.084-0.078,0.126-0.117C63.546,55.92,63.588,56.111,63.693,56.256z"/>
	</g>
	<g>
		<path fill="#1599D6" d="M32.394,110.931c-0.66,0.855-1.49,1.57-2.492,2.145c-1.087,0.616-2.145,0.925-3.172,0.925
			c-1.182,0-2.166-0.497-2.954-1.489c-0.72-0.899-1.079-1.936-1.079-3.109v-0.938c0-1.275,0.407-2.808,1.221-4.598
			c0.855-1.866,1.896-3.416,3.121-4.648c1.412-1.422,2.813-2.133,4.199-2.133c0.316,0,0.702,0.111,1.156,0.334
			c0.539,0.266,0.809,0.553,0.809,0.861c0,0.213-0.086,0.396-0.257,0.545c-0.172,0.15-0.356,0.225-0.554,0.225
			c-0.043,0-0.278-0.098-0.707-0.295s-0.789-0.295-1.08-0.295c-1.415,0-2.924,1.318-4.527,3.955
			c-1.491,2.467-2.237,4.529-2.237,6.19c0,1.173,0.184,2.146,0.553,2.916c0.463,0.968,1.166,1.451,2.108,1.451
			c0.798,0,1.719-0.304,2.766-0.912c1.551-0.899,2.884-2.397,3.999-4.495c0.18-0.342,0.373-0.514,0.578-0.514
			c0.197,0,0.339,0.18,0.425,0.539c-0.043,0.266-0.325,0.844-0.848,1.734C32.967,110.104,32.624,110.64,32.394,110.931z"/>
		<path fill="#1599D6" d="M35.463,108.798c-0.009-0.359-0.013-0.758-0.013-1.193c0-2.235,0.128-4.496,0.385-6.781
			c0.291-2.535,0.616-3.803,0.977-3.803c0.444,0,0.668,0.244,0.668,0.732c-0.009,0.077-0.035,0.227-0.077,0.449l-0.154,0.912
			c-0.163,0.908-0.274,1.605-0.334,2.094c-0.24,2.038-0.359,4.35-0.359,6.936c0,3.125,0.548,4.688,1.644,4.688
			c0.197,0,0.347-0.077,0.449-0.23h0.296l0.23,0.23l0.014,0.037c0.017,0.066,0.025,0.146,0.025,0.236
			c-0.291,0.357-0.659,0.535-1.104,0.535c-0.659,0-1.229-0.376-1.708-1.129C35.844,111.637,35.531,110.399,35.463,108.798z"/>
		<path fill="#1599D6" d="M42.038,113.345c-0.813,0-1.435-0.634-1.862-1.9c-0.3-0.873-0.449-1.726-0.449-2.557
			c0-0.762,0.094-1.699,0.282-2.813c0.282-1.609,0.668-2.414,1.156-2.414c0.385,0,0.578,0.223,0.578,0.668
			c0,0.205-0.12,0.591-0.36,1.156c-0.248,0.616-0.428,1.665-0.539,3.146c0.018,0.701,0.018,1.121,0,1.258
			c0.111,0.531,0.223,1.063,0.334,1.593c0.223,0.702,0.552,1.054,0.989,1.054c0.103,0,0.171-0.018,0.205-0.052
			c0.12-0.163,0.287-0.296,0.501-0.397c0.18,0.153,0.27,0.299,0.27,0.436c0,0.231-0.149,0.433-0.449,0.604
			C42.453,113.272,42.235,113.345,42.038,113.345z M41.268,100.655c-0.188,0-0.349-0.08-0.481-0.244
			c-0.133-0.162-0.199-0.316-0.199-0.462c0-0.171,0.066-0.343,0.199-0.514s0.302-0.257,0.508-0.257c0.444,0,0.667,0.244,0.667,0.732
			C41.961,100.407,41.729,100.655,41.268,100.655z"/>
		<path fill="#1599D6" d="M59.505,112.24c-0.736,0-1.34-0.534-1.81-1.605c-0.37-0.83-0.553-1.588-0.553-2.272
			c0,0.162,0-0.253,0-1.246c0.018-0.65,0.009-1.156-0.025-1.516c-0.043-0.496-0.128-0.745-0.256-0.745
			c-0.025,0-0.243,0.325-0.652,0.976c-1.391,2.176-2.142,3.34-2.252,3.494c-1.16,1.609-2.069,2.414-2.727,2.414
			c-0.656,0-1.015-0.715-1.074-2.145c-0.018-0.394,0.021-1.64,0.115-3.737c0.018-0.471-0.021-0.706-0.115-0.706
			c-0.274,0-0.994,1.057-2.158,3.172c-1.189,2.148-1.823,3.617-1.9,4.405c-0.025,0.316-0.223,0.476-0.591,0.476
			c-0.171,0-0.325-0.274-0.462-0.822c-0.095-0.42-0.142-0.732-0.142-0.938c0-1.566,0.038-2.916,0.115-4.046
			c0.068-1.044,0.2-1.931,0.396-2.659c0.204-0.787,0.438-1.181,0.701-1.181c0.188,0,0.359,0.068,0.517,0.205
			c0.157,0.138,0.22,0.271,0.185,0.398c-0.505,1.823-0.766,3.698-0.783,5.626c0.923-1.662,1.563-2.771,1.922-3.327
			c1.043-1.601,1.857-2.401,2.447-2.401c0.709,0,1.047,0.843,1.012,2.529c-0.006,0.18-0.027,0.587-0.063,1.221
			c-0.035,0.582-0.053,1.045-0.053,1.387c0,0.66,0.064,1.16,0.193,1.503c0.307-0.095,0.841-0.651,1.602-1.67
			c0.624-0.856,1.154-1.652,1.59-2.389c1.129-1.952,1.949-2.929,2.461-2.929c0.514,0,0.837,0.493,0.975,1.478
			c0.043,0.608,0.107,1.541,0.192,2.8c0.155,2.286,0.557,3.438,1.208,3.455c0.248,0.008,0.469-0.117,0.66-0.379
			c0.193-0.262,0.35-0.392,0.469-0.392c0.24,0,0.36,0.128,0.36,0.385c0,0.352-0.214,0.651-0.641,0.899
			C60.033,112.146,59.745,112.24,59.505,112.24z"/>
		<path fill="#1599D6" d="M64.025,108.079c-0.153,0.137-0.319,0.553-0.494,1.246c-0.176,0.693-0.263,1.297-0.263,1.811
			c0,0.668,0.44,1.002,1.322,1.002c0.848,0,1.841-0.492,2.98-1.477c1.104-0.959,1.87-1.948,2.299-2.967h0.411
			c0.162,0.154,0.219,0.299,0.167,0.436c-0.497,1.439-1.327,2.633-2.491,3.584c-1.104,0.916-2.214,1.374-3.326,1.374
			c-0.822,0-1.443-0.282-1.863-0.848c-0.41-0.539-0.59-1.267-0.539-2.183c0.069-1.285,0.753-2.877,2.055-4.778
			c1.396-2.038,2.668-3.057,3.813-3.057c0.387,0,0.683,0.18,0.887,0.54c0.155,0.265,0.231,0.543,0.231,0.834
			c0,0.84-0.356,1.803-1.065,2.89c-0.838,1.31-1.803,1.966-2.891,1.966c-0.513,0-0.907-0.111-1.181-0.334L64.025,108.079z
			 M67.942,103.122c-0.325,0.076-0.62,0.273-0.886,0.59c-1.78,2.09-2.671,3.306-2.671,3.648c0,0.094,0.196,0.154,0.589,0.18
			c0.667,0.034,1.396-0.445,2.184-1.438c0.771-0.968,1.155-1.833,1.155-2.595C68.314,103.182,68.189,103.054,67.942,103.122z"/>
		<path fill="#1599D6" d="M79.669,110.931c-0.66,0.855-1.49,1.57-2.492,2.145c-1.088,0.616-2.145,0.925-3.172,0.925
			c-1.183,0-2.167-0.497-2.954-1.489c-0.72-0.899-1.08-1.936-1.08-3.109v-0.938c0-1.275,0.407-2.808,1.222-4.598
			c0.855-1.866,1.897-3.416,3.12-4.648c1.413-1.422,2.813-2.133,4.2-2.133c0.316,0,0.701,0.111,1.156,0.334
			c0.539,0.266,0.809,0.553,0.809,0.861c0,0.213-0.086,0.396-0.258,0.545c-0.171,0.15-0.355,0.225-0.553,0.225
			c-0.043,0-0.278-0.098-0.707-0.295s-0.789-0.295-1.08-0.295c-1.415,0-2.924,1.318-4.528,3.955
			c-1.491,2.467-2.237,4.529-2.237,6.19c0,1.173,0.185,2.146,0.554,2.916c0.462,0.968,1.164,1.451,2.108,1.451
			c0.797,0,1.719-0.304,2.765-0.912c1.552-0.899,2.885-2.397,3.999-4.495c0.181-0.342,0.373-0.514,0.579-0.514
			c0.197,0,0.339,0.18,0.425,0.539c-0.043,0.266-0.326,0.844-0.848,1.734C80.242,110.104,79.899,110.64,79.669,110.931z"/>
		<path fill="#1599D6" d="M89.331,111.958c-0.816-0.291-1.225-1.242-1.225-2.852c0-0.171,0-0.347,0-0.526
			c-0.845,1.13-1.774,2.162-2.789,3.095c-1.307,1.199-2.334,1.799-3.084,1.799c-0.248,0-0.461-0.068-0.641-0.205
			c-0.307-0.232-0.461-0.609-0.461-1.131c0-1.07,0.574-2.514,1.722-4.328c1.112-1.738,2.329-3.168,3.647-4.289
			c1.438-1.225,2.504-1.61,3.196-1.156c0.327,0.205,0.489,0.638,0.489,1.297c0,0.788-0.27,1.207-0.809,1.259
			c-0.377,0.025-0.565-0.107-0.565-0.398c0-0.043,0.009-0.081,0.026-0.115c0.162-0.403,0.239-0.763,0.23-1.079
			c0-0.188-0.021-0.278-0.064-0.27c-0.848,0.154-2.22,1.462-4.115,3.924c-1.897,2.461-2.846,4.159-2.846,5.092
			c0,0.325,0.146,0.488,0.438,0.488c0.744,0,1.913-0.963,3.506-2.89c1.104-1.336,1.708-2.076,1.811-2.222
			c0.488-0.677,0.767-1.297,0.835-1.863c0.043-0.385,0.249-0.577,0.616-0.577c0.522,0,0.732,0.253,0.63,0.758
			c-0.42,2.2-0.63,3.54-0.63,4.021c0,0.873,0.193,1.361,0.578,1.463c0.137,0.035,0.283,0.01,0.438-0.076
			c0.128-0.077,0.2-0.154,0.218-0.231c0.085-0.368,0.3-0.552,0.642-0.552c0.206,0,0.309,0.111,0.309,0.334
			c0,0.094-0.025,0.209-0.077,0.346c-0.267,0.668-0.748,1.002-1.444,1.002C89.722,112.073,89.528,112.035,89.331,111.958z"/>
		<path fill="#1599D6" d="M98.958,103.841c-0.051,0-0.22-0.077-0.506-0.23c-0.287-0.154-0.504-0.236-0.649-0.244
			c-0.582-0.052-1.396,0.372-2.44,1.271c-1.078,0.924-1.617,1.717-1.617,2.375c0,0.352,0.624,0.527,1.875,0.527
			c2.414,0,3.621,0.672,3.621,2.016c0,0.951-0.534,1.803-1.602,2.557c-0.975,0.685-1.944,1.027-2.91,1.027
			c-0.428,0-0.824-0.133-1.191-0.398c-0.428-0.3-0.641-0.689-0.641-1.168c0-0.197,0.084-0.429,0.253-0.694
			c0.194-0.308,0.401-0.462,0.622-0.462c0.059,0,0.118,0.012,0.178,0.038c-0.031,0.3-0.08,0.531-0.148,0.694
			c-0.039,0.094-0.057,0.191-0.057,0.295c0,0.385,0.229,0.578,0.691,0.578c0.708,0,1.52-0.231,2.434-0.693
			c1.016-0.514,1.523-1.054,1.523-1.619c0-0.351-0.176-0.643-0.528-0.873c-0.291-0.188-0.612-0.291-0.965-0.309l-2.472-0.09
			c-0.411-0.017-0.811-0.103-1.196-0.257c-0.523-0.205-0.785-0.479-0.785-0.821c0-0.848,0.665-1.92,1.997-3.218
			c1.332-1.297,2.455-1.946,3.371-1.946c0.257,0,0.569,0.1,0.938,0.296c0.438,0.239,0.655,0.505,0.655,0.796
			C99.408,103.657,99.259,103.841,98.958,103.841z"/>
		<path fill="#1599D6" d="M102.375,104.548c0.386-0.095,0.848-0.142,1.388-0.142c0.248,0,0.543,0.09,0.886,0.27
			c0.437,0.239,0.655,0.522,0.655,0.848c0,0.06-0.014,0.115-0.039,0.167l-0.013,0.039c0-0.018-0.017,0.017-0.052,0.102
			c-0.095,0.035-0.128,0.057-0.103,0.064h-0.025c-0.052,0.025-0.111,0.039-0.18,0.039c-0.052,0-0.121-0.047-0.206-0.142
			c-0.171-0.411-0.453-0.616-0.848-0.616c-0.137,0-0.291,0.025-0.462,0.077c-0.36,0.095-0.728,0.257-1.105,0.487
			c0,0.043-0.003,0.111-0.012,0.206c-0.112,0.864-0.142,1.909-0.091,3.134c0.086,2.27,0.596,3.403,1.529,3.403
			c0.266,0,0.509-0.138,0.732-0.411c0.222-0.273,0.376-0.41,0.462-0.41c0.274,0,0.411,0.128,0.411,0.385
			c0,0.309-0.254,0.6-0.758,0.873c-0.42,0.223-0.732,0.334-0.938,0.334c-0.779,0-1.399-0.424-1.862-1.271
			c-0.324-0.607-0.526-1.279-0.604-2.017c-0.137-1.301-0.146-2.59-0.025-3.865c-0.479,0.171-1.057,0.505-1.734,1.001
			c-0.085,0.069-0.166,0.104-0.243,0.104c-0.231,0-0.347-0.24-0.347-0.72c0-0.3,0.706-0.783,2.119-1.451
			c0.085-0.017,0.171-0.038,0.256-0.063c0.061-0.583,0.154-1.451,0.283-2.607s0.415-1.734,0.861-1.734
			c0.367,0,0.564,0.24,0.59,0.719L102.375,104.548z"/>
	</g>
</g>
</svg>
